<svg width="64" height="64" viewBox="0 0 64 64" fill="none" xmlns="http://www.w3.org/2000/svg">
<circle cx="32" cy="32" r="32" fill="white"/>
<path d="M28.9375 39.9219C28.375 39.9219 28 40.3438 28 40.8594V43.0625C28 43.625 28.375 44 28.9375 44H36.0625C36.5781 44 37 43.625 37 43.0625V40.8594C37 40.3438 36.5781 39.9219 36.0625 39.9219H35.125V29.9375C35.125 29.4219 34.7031 29 34.1875 29H28.9375C28.375 29 28 29.4219 28 29.9375V32.1875C28 32.7031 28.375 33.125 28.9375 33.125H29.875V39.9219H28.9375ZM32.5 20C30.625 20 29.125 21.5469 29.125 23.375C29.125 25.25 30.625 26.75 32.5 26.75C34.3281 26.75 35.875 25.25 35.875 23.375C35.875 21.5469 34.3281 20 32.5 20Z" fill="#1D4072"/>
</svg>
