<svg width="64" height="64" viewBox="0 0 64 64" fill="none" xmlns="http://www.w3.org/2000/svg">
<circle cx="32" cy="32" r="32" fill="white"/>
<path d="M32 39.5C37.3438 39.5 41.75 35.1406 41.75 29.75C41.75 24.4062 37.3438 20 32 20C26.6094 20 22.25 24.4062 22.25 29.75C22.25 35.1406 26.6094 39.5 32 39.5ZM30.9219 24.5938V23.7969C30.9219 23.375 31.2969 23 31.7188 23H32.2344C32.6562 23 33.0312 23.375 33.0312 23.7969V24.5938C33.7344 24.6406 34.4375 24.875 35.0469 25.2969C35.2812 25.5312 35.3281 25.9062 35.0938 26.1406L34.3438 26.8438C34.1562 27.0312 33.875 27.0312 33.6875 26.8906C33.4062 26.75 33.125 26.6562 32.8438 26.6562H31.0156C30.5938 26.6562 30.2656 27.0312 30.2656 27.5C30.2656 27.875 30.5 28.25 30.8281 28.3438L33.7344 29.2344C34.9531 29.5625 35.7969 30.7344 35.7969 32.0469C35.7969 33.6406 34.5312 34.9062 33.0312 34.9531V35.75C33.0312 36.1719 32.6562 36.5 32.2344 36.5H31.7188C31.2969 36.5 30.9219 36.1719 30.9219 35.75V34.9531C30.2188 34.9062 29.5156 34.6719 28.9062 34.2031C28.6719 34.0156 28.625 33.6406 28.8594 33.4062L29.6094 32.7031C29.7969 32.5156 30.0781 32.5156 30.2656 32.6562C30.5469 32.7969 30.8281 32.8906 31.1094 32.8906H32.9375C33.3594 32.8906 33.6875 32.5156 33.6875 32.0469C33.6875 31.625 33.4531 31.2969 33.125 31.2031L30.2188 30.3125C29 29.9844 28.1562 28.8125 28.1562 27.5C28.1562 25.9062 29.4219 24.6406 30.9219 24.5938ZM42.5 36.5H40.9531C40.0156 37.7188 38.8438 38.75 37.5312 39.5H40.5312C40.7656 39.5 40.9531 39.6875 40.9531 39.875V40.625C40.9531 40.8594 40.7656 41 40.5312 41H23.4219C23.1875 41 23 40.8594 23 40.625V39.875C23 39.6875 23.1875 39.5 23.4219 39.5H26.4219C25.1094 38.75 23.9375 37.7188 23 36.5H21.5C20.6562 36.5 20 37.2031 20 38V42.5C20 43.3438 20.6562 44 21.5 44H42.5C43.2969 44 44 43.3438 44 42.5V38C44 37.2031 43.2969 36.5 42.5 36.5Z" fill="#1D4072"/>
</svg>
