<svg width="64" height="64" viewBox="0 0 64 64" fill="none" xmlns="http://www.w3.org/2000/svg">
<circle cx="32" cy="32" r="32" fill="white"/>
<path d="M22.5625 29C22.2344 29 22 29.2812 22 29.5625V41.75C22 43.0156 22.9844 44 24.25 44H40.75C41.9688 44 43 43.0156 43 41.75V29.5625C43 29.2812 42.7188 29 42.4375 29H22.5625ZM43 26.9375V25.25C43 24.0312 41.9688 23 40.75 23H38.5V20.5625C38.5 20.2812 38.2188 20 37.9375 20H36.0625C35.7344 20 35.5 20.2812 35.5 20.5625V23H29.5V20.5625C29.5 20.2812 29.2188 20 28.9375 20H27.0625C26.7344 20 26.5 20.2812 26.5 20.5625V23H24.25C22.9844 23 22 24.0312 22 25.25V26.9375C22 27.2656 22.2344 27.5 22.5625 27.5H42.4375C42.7188 27.5 43 27.2656 43 26.9375Z" fill="#1D4072"/>
</svg>
