<svg width="64" height="64" viewBox="0 0 64 64" fill="none" xmlns="http://www.w3.org/2000/svg">
<circle cx="32" cy="32" r="32" fill="white"/>
<path d="M32.125 26.9844L23.5 34.1094V41.75C23.5 42.1719 23.8281 42.5 24.25 42.5H29.5C29.875 42.5 30.2031 42.1719 30.2031 41.75V37.25C30.2031 36.875 30.5781 36.5 30.9531 36.5H33.9531C34.375 36.5 34.7031 36.875 34.7031 37.25V41.75C34.7031 42.1719 35.0781 42.5 35.4531 42.5H40.75C41.125 42.5 41.5 42.1719 41.5 41.75V34.0625L32.8281 26.9844C32.7344 26.8906 32.5938 26.8438 32.5 26.8438C32.3594 26.8438 32.2188 26.8906 32.125 26.9844ZM45.7656 31.8125L41.875 28.5781V22.1094C41.875 21.7812 41.5938 21.5469 41.3125 21.5469H38.6875C38.3594 21.5469 38.125 21.7812 38.125 22.1094V25.4844L33.9062 22.0156C33.5781 21.7344 32.9219 21.5469 32.4531 21.5469C32.0312 21.5469 31.375 21.7344 31.0469 22.0156L19.1875 31.8125C19.0469 31.9062 18.9531 32.0938 18.9531 32.2344C18.9531 32.375 19.0469 32.5156 19.0938 32.6094L20.3125 34.0625C20.4062 34.1562 20.5938 34.25 20.7344 34.25C20.8281 34.25 21.0156 34.2031 21.1094 34.1094L32.125 25.0625C32.2188 24.9688 32.3594 24.9219 32.5 24.9219C32.5938 24.9219 32.7344 24.9688 32.8281 25.0625L43.8438 34.1094C43.9375 34.2031 44.125 34.25 44.2188 34.25C44.3594 34.25 44.5469 34.1562 44.6406 34.0625L45.8594 32.6094C45.9062 32.5156 46 32.375 46 32.2344C46 32.0938 45.9062 31.9062 45.7656 31.8125Z" fill="#1D4072"/>
</svg>
